<svg xmlns="http://www.w3.org/2000/svg" xmlns:xlink="http://www.w3.org/1999/xlink" viewBox="0 0 81 103"><defs><style>.a{fill:#8fb637;}.b{fill:#dddad3;}.c{fill:#a01d03;}.d{fill:#f94017;}.e{fill:#710c00;}.f{fill:url(#a);}.g{fill:#966440;}.h{fill:#845530;}.i{fill:#4c370e;}</style><linearGradient id="a" x1="22" y1="69.9" x2="60" y2="69.9" gradientUnits="userSpaceOnUse"><stop offset="0" stop-color="#300"/><stop offset="1" stop-color="#330909"/></linearGradient></defs><title>Untitled-2</title><polygon class="a" points="11 93 51 103 70.55 93 47 74 11 93"/><path class="b" d="M40.23,1.92S25.91,26.19,3.82,46l1.95,1.1S29.93,21.15,41,3.84Z"/><path class="b" d="M41.6,1.92S55.91,26.19,78,46l-1.94,1.1s-24.17-26-35.24-43.3Z"/><polygon class="c" points="11 93 41 39 71 93 11 93"/><polygon class="d" points="41 39 41 0 11 50 11 93 41 39"/><polygon class="e" points="71 93 71 50 41 0 41 39 71 93"/><polygon class="f" points="22 87 41 52.8 60 87 22 87"/><path class="b" d="M40.88,39.68S26.21,65.73,3.35,87.18L5.4,88.33s25-28,36.31-46.61Z"/><path class="b" d="M41.18,39.68s14.67,26.05,37.53,47.5l-2,1.15s-25-28-36.32-46.61Z"/><polyline class="g" points="1 46 1 52 4 54 4 48 1 46"/><polygon class="h" points="4 44 7 46 4 48 1 46 4 44"/><polyline class="i" points="4 54 7 52 7 46 4 48 4 54"/><polyline class="g" points="0 86 0 92 3 94 3 88 0 86"/><polygon class="h" points="3 84 6 86 3 88 0 86 3 84"/><polyline class="i" points="3 94 6 92 6 86 3 88 3 94"/><polyline class="g" points="75 47 75 53 78 55 78 49 75 47"/><polygon class="h" points="78 45 81 47 78 49 75 47 78 45"/><polyline class="i" points="78 55 81 53 81 47 78 49 78 55"/><polyline class="g" points="75 86 75 92 78 94 78 88 75 86"/><polygon class="h" points="78 84 81 86 78 88 75 86 78 84"/><polyline class="i" points="78 94 81 92 81 86 78 88 78 94"/></svg>